# Blender v2.78 (sub 0) OBJ File: ''
# www.blender.org
mtllib SnapToolArrow.mtl
o Cylinder
v 0.000000 0.016800 -0.082837
v 0.000000 4.004359 -0.082837
v 0.016161 0.016800 -0.081245
v 0.016161 4.004359 -0.081245
v 0.031700 0.016800 -0.076532
v 0.031700 4.004359 -0.076532
v 0.046022 0.016800 -0.068877
v 0.046022 4.004359 -0.068877
v 0.058575 0.016800 -0.058575
v 0.058575 4.004359 -0.058575
v 0.068877 0.016800 -0.046022
v 0.068877 4.004359 -0.046022
v 0.076532 0.016800 -0.031700
v 0.076532 4.004359 -0.031700
v 0.081245 0.016800 -0.016161
v 0.081245 4.004359 -0.016161
v 0.082837 0.016800 -0.000000
v 0.082837 4.004359 -0.000000
v 0.081245 0.016800 0.016161
v 0.081245 4.004359 0.016161
v 0.076532 0.016800 0.031700
v 0.076532 4.004359 0.031700
v 0.068877 0.016800 0.046022
v 0.068877 4.004359 0.046022
v 0.058575 0.016800 0.058575
v 0.058575 4.004359 0.058575
v 0.046022 0.016800 0.068877
v 0.046022 4.004359 0.068877
v 0.031700 0.016800 0.076532
v 0.031700 4.004359 0.076532
v 0.016161 0.016800 0.081245
v 0.016161 4.004359 0.081245
v -0.000000 0.016800 0.082837
v -0.000000 4.004359 0.082837
v -0.016161 0.016800 0.081245
v -0.016161 4.004359 0.081245
v -0.031700 0.016800 0.076532
v -0.031700 4.004359 0.076532
v -0.046022 0.016800 0.068877
v -0.046022 4.004359 0.068877
v -0.058575 0.016800 0.058575
v -0.058575 4.004359 0.058575
v -0.068877 0.016800 0.046022
v -0.068877 4.004359 0.046022
v -0.076532 0.016800 0.031700
v -0.076532 4.004359 0.031700
v -0.081245 0.016800 0.016161
v -0.081245 4.004359 0.016161
v -0.082837 0.016800 -0.000000
v -0.082837 4.004359 -0.000000
v -0.081245 0.016800 -0.016161
v -0.081245 4.004359 -0.016161
v -0.076532 0.016800 -0.031700
v -0.076532 4.004359 -0.031700
v -0.068877 0.016800 -0.046022
v -0.068877 4.004359 -0.046022
v -0.058575 0.016800 -0.058575
v -0.058575 4.004359 -0.058575
v -0.046022 0.016800 -0.068877
v -0.046022 4.004359 -0.068877
v -0.031700 0.016800 -0.076532
v -0.031700 4.004359 -0.076532
v -0.016161 0.016800 -0.081245
v -0.016161 4.004359 -0.081245
v -0.000000 4.004359 -0.775488
v 0.151290 4.004359 -0.760587
v 0.296766 4.004359 -0.716458
v 0.430838 4.004359 -0.644795
v 0.548353 4.004359 -0.548353
v 0.644795 4.004359 -0.430838
v 0.716458 4.004359 -0.296766
v 0.760587 4.004359 -0.151290
v 0.775488 4.004359 0.000000
v 0.760588 4.004359 0.151290
v 0.716458 4.004359 0.296767
v 0.644795 4.004359 0.430838
v 0.548353 4.004359 0.548353
v 0.430838 4.004359 0.644795
v 0.296766 4.004359 0.716458
v 0.151290 4.004359 0.760588
v -0.000000 4.004359 0.775488
v -0.151291 4.004359 0.760588
v -0.296767 4.004359 0.716458
v -0.430839 4.004359 0.644795
v -0.548353 4.004359 0.548353
v -0.644795 4.004359 0.430838
v -0.716458 4.004359 0.296766
v -0.760588 4.004359 0.151290
v -0.775488 4.004359 -0.000001
v -0.760587 4.004359 -0.151291
v -0.716458 4.004359 -0.296767
v -0.644795 4.004359 -0.430839
v -0.548352 4.004359 -0.548354
v -0.430837 4.004359 -0.644795
v -0.296766 4.004359 -0.716458
v -0.151289 4.004359 -0.760588
v -0.000000 6.317841 -0.000000
vn 0.0980 0.0000 -0.9952
vn 0.2903 0.0000 -0.9569
vn 0.4714 0.0000 -0.8819
vn 0.6344 0.0000 -0.7730
vn 0.7730 0.0000 -0.6344
vn 0.8819 0.0000 -0.4714
vn 0.9569 0.0000 -0.2903
vn 0.9952 0.0000 -0.0980
vn 0.9952 0.0000 0.0980
vn 0.9569 0.0000 0.2903
vn 0.8819 0.0000 0.4714
vn 0.7730 0.0000 0.6344
vn 0.6344 0.0000 0.7730
vn 0.4714 0.0000 0.8819
vn 0.2903 0.0000 0.9569
vn 0.0980 0.0000 0.9952
vn -0.0980 0.0000 0.9952
vn -0.2903 0.0000 0.9569
vn -0.4714 0.0000 0.8819
vn -0.6344 0.0000 0.7730
vn -0.7730 0.0000 0.6344
vn -0.8819 0.0000 0.4714
vn -0.9569 0.0000 0.2903
vn -0.9952 0.0000 0.0980
vn -0.9952 0.0000 -0.0980
vn -0.9569 0.0000 -0.2903
vn -0.8819 0.0000 -0.4714
vn -0.7730 0.0000 -0.6344
vn -0.6344 0.0000 -0.7730
vn -0.4714 0.0000 -0.8819
vn 0.0000 -1.0000 -0.0000
vn -0.2903 0.0000 -0.9569
vn -0.0980 0.0000 -0.9952
vn 0.2754 0.3164 -0.9078
vn -0.6018 0.3164 -0.7333
vn 0.0930 0.3164 0.9440
vn 0.4472 0.3164 -0.8366
vn -0.4472 0.3164 -0.8366
vn -0.0930 0.3164 0.9440
vn 0.6018 0.3164 -0.7333
vn -0.2754 0.3164 -0.9078
vn -0.2754 0.3164 0.9078
vn 0.7333 0.3164 -0.6018
vn -0.0930 0.3164 -0.9440
vn -0.4472 0.3164 0.8366
vn 0.8366 0.3164 -0.4472
vn -0.6018 0.3164 0.7333
vn 0.9078 0.3164 -0.2754
vn -0.7333 0.3164 0.6018
vn 0.9440 0.3164 -0.0930
vn -0.8366 0.3164 0.4472
vn 0.9440 0.3164 0.0930
vn -0.9078 0.3164 0.2754
vn 0.9078 0.3164 0.2754
vn -0.9440 0.3164 0.0930
vn 0.8366 0.3164 0.4472
vn -0.9440 0.3164 -0.0930
vn 0.7333 0.3164 0.6018
vn -0.9078 0.3164 -0.2754
vn 0.6018 0.3164 0.7333
vn -0.8366 0.3164 -0.4472
vn 0.4472 0.3164 0.8366
vn 0.0930 0.3164 -0.9440
vn -0.7333 0.3164 -0.6018
vn 0.2754 0.3164 0.9078
usemtl None
s off
f 1//1 2//1 4//1 3//1
f 3//2 4//2 6//2 5//2
f 5//3 6//3 8//3 7//3
f 7//4 8//4 10//4 9//4
f 9//5 10//5 12//5 11//5
f 11//6 12//6 14//6 13//6
f 13//7 14//7 16//7 15//7
f 15//8 16//8 18//8 17//8
f 17//9 18//9 20//9 19//9
f 19//10 20//10 22//10 21//10
f 21//11 22//11 24//11 23//11
f 23//12 24//12 26//12 25//12
f 25//13 26//13 28//13 27//13
f 27//14 28//14 30//14 29//14
f 29//15 30//15 32//15 31//15
f 31//16 32//16 34//16 33//16
f 33//17 34//17 36//17 35//17
f 35//18 36//18 38//18 37//18
f 37//19 38//19 40//19 39//19
f 39//20 40//20 42//20 41//20
f 41//21 42//21 44//21 43//21
f 43//22 44//22 46//22 45//22
f 45//23 46//23 48//23 47//23
f 47//24 48//24 50//24 49//24
f 49//25 50//25 52//25 51//25
f 51//26 52//26 54//26 53//26
f 53//27 54//27 56//27 55//27
f 55//28 56//28 58//28 57//28
f 57//29 58//29 60//29 59//29
f 59//30 60//30 62//30 61//30
f 14//31 12//31 70//31 71//31
f 61//32 62//32 64//32 63//32
f 63//33 64//33 2//33 1//33
f 1//31 3//31 5//31 7//31 9//31 11//31 13//31 15//31 17//31 19//31 21//31 23//31 25//31 27//31 29//31 31//31 33//31 35//31 37//31 39//31 41//31 43//31 45//31 47//31 49//31 51//31 53//31 55//31 57//31 59//31 61//31 63//31
f 67//34 66//34 97//34
f 32//31 30//31 79//31 80//31
f 50//31 48//31 88//31 89//31
f 6//31 4//31 66//31 67//31
f 24//31 22//31 75//31 76//31
f 42//31 40//31 84//31 85//31
f 60//31 58//31 93//31 94//31
f 16//31 14//31 71//31 72//31
f 34//31 32//31 80//31 81//31
f 52//31 50//31 89//31 90//31
f 8//31 6//31 67//31 68//31
f 26//31 24//31 76//31 77//31
f 44//31 42//31 85//31 86//31
f 62//31 60//31 94//31 95//31
f 18//31 16//31 72//31 73//31
f 36//31 34//31 81//31 82//31
f 54//31 52//31 90//31 91//31
f 10//31 8//31 68//31 69//31
f 28//31 26//31 77//31 78//31
f 46//31 44//31 86//31 87//31
f 64//31 62//31 95//31 96//31
f 20//31 18//31 73//31 74//31
f 38//31 36//31 82//31 83//31
f 56//31 54//31 91//31 92//31
f 12//31 10//31 69//31 70//31
f 30//31 28//31 78//31 79//31
f 48//31 46//31 87//31 88//31
f 4//31 2//31 65//31 66//31
f 2//31 64//31 96//31 65//31
f 22//31 20//31 74//31 75//31
f 40//31 38//31 83//31 84//31
f 58//31 56//31 92//31 93//31
f 94//35 93//35 97//35
f 81//36 80//36 97//36
f 68//37 67//37 97//37
f 95//38 94//38 97//38
f 82//39 81//39 97//39
f 69//40 68//40 97//40
f 96//41 95//41 97//41
f 83//42 82//42 97//42
f 70//43 69//43 97//43
f 65//44 96//44 97//44
f 84//45 83//45 97//45
f 71//46 70//46 97//46
f 85//47 84//47 97//47
f 72//48 71//48 97//48
f 86//49 85//49 97//49
f 73//50 72//50 97//50
f 87//51 86//51 97//51
f 74//52 73//52 97//52
f 88//53 87//53 97//53
f 75//54 74//54 97//54
f 89//55 88//55 97//55
f 76//56 75//56 97//56
f 90//57 89//57 97//57
f 77//58 76//58 97//58
f 91//59 90//59 97//59
f 78//60 77//60 97//60
f 92//61 91//61 97//61
f 79//62 78//62 97//62
f 66//63 65//63 97//63
f 93//64 92//64 97//64
f 80//65 79//65 97//65
