# Blender v2.78 (sub 0) OBJ File: ''
# www.blender.org
mtllib Models.mtl
o Circle
v 0.000000 1.890211 -0.555603
v -0.108393 1.890211 -0.544927
v -0.212620 1.890211 -0.513310
v -0.308676 1.890211 -0.461967
v -0.392870 1.890211 -0.392870
v -0.461967 1.890211 -0.308676
v -0.513310 1.890211 -0.212620
v -0.544927 1.890211 -0.108393
v -0.555603 1.890211 -0.000000
v -0.544927 1.890211 0.108393
v -0.513310 1.890211 0.212620
v -0.461967 1.890211 0.308676
v -0.392870 1.890211 0.392870
v -0.308676 1.890211 0.461967
v -0.212620 1.890211 0.513310
v -0.108393 1.890211 0.544927
v 0.000000 1.890211 0.555603
v 0.108393 1.890211 0.544927
v 0.212620 1.890211 0.513310
v 0.308677 1.890211 0.461967
v 0.392871 1.890211 0.392870
v 0.461967 1.890211 0.308676
v 0.513310 1.890211 0.212620
v 0.544927 1.890211 0.108392
v 0.555603 1.890211 -0.000001
v 0.544927 1.890211 -0.108393
v 0.513310 1.890211 -0.212621
v 0.461966 1.890211 -0.308677
v 0.392870 1.890211 -0.392871
v 0.308676 1.890211 -0.461967
v 0.212619 1.890211 -0.513310
v 0.108392 1.890211 -0.544927
v 0.000000 2.348030 -0.555603
v -0.108393 2.348030 -0.544927
v -0.212620 2.348030 -0.513310
v -0.308676 2.348030 -0.461967
v -0.392870 2.348030 -0.392870
v -0.461967 2.348030 -0.308676
v -0.513310 2.348030 -0.212620
v -0.544927 2.348030 -0.108393
v -0.555603 2.348030 -0.000000
v -0.544927 2.348030 0.108393
v -0.513310 2.348030 0.212620
v -0.461967 2.348030 0.308676
v -0.392870 2.348030 0.392870
v -0.308676 2.348030 0.461967
v -0.212620 2.348030 0.513310
v -0.108393 2.348030 0.544927
v 0.000000 2.348030 0.555603
v 0.108393 2.348030 0.544927
v 0.212620 2.348030 0.513310
v 0.308677 2.348030 0.461967
v 0.392871 2.348030 0.392870
v 0.461967 2.348030 0.308676
v 0.513310 2.348030 0.212620
v 0.544927 2.348030 0.108392
v 0.555603 2.348030 -0.000001
v 0.544927 2.348030 -0.108393
v 0.513310 2.348030 -0.212621
v 0.461966 2.348030 -0.308677
v 0.392870 2.348030 -0.392871
v 0.308676 2.348030 -0.461967
v 0.212619 2.348030 -0.513310
v 0.108392 2.348030 -0.544927
vn 0.0000 -1.0000 -0.0000
vn 0.0000 1.0000 0.0000
vn 0.2903 0.0000 -0.9569
vn 0.2903 0.0000 0.9569
vn -0.7730 0.0000 -0.6344
vn 0.0980 0.0000 -0.9952
vn 0.4714 0.0000 0.8819
vn -0.8819 0.0000 -0.4714
vn 0.6344 0.0000 0.7730
vn -0.9569 0.0000 -0.2903
vn 0.7730 0.0000 0.6344
vn -0.9952 0.0000 -0.0980
vn 0.8819 0.0000 0.4714
vn -0.9952 0.0000 0.0980
vn 0.9569 0.0000 0.2903
vn -0.9569 0.0000 0.2903
vn 0.9952 0.0000 0.0980
vn -0.8819 0.0000 0.4714
vn 0.9952 0.0000 -0.0980
vn -0.7730 0.0000 0.6344
vn 0.9569 0.0000 -0.2903
vn -0.6344 0.0000 0.7730
vn 0.8819 0.0000 -0.4714
vn -0.4714 0.0000 0.8819
vn -0.0980 0.0000 -0.9952
vn 0.7730 0.0000 -0.6344
vn -0.2903 0.0000 0.9569
vn -0.2903 0.0000 -0.9569
vn 0.6344 0.0000 -0.7730
vn -0.0980 0.0000 0.9952
vn -0.4714 0.0000 -0.8819
vn 0.4714 0.0000 -0.8819
vn 0.0980 0.0000 0.9952
vn -0.6344 0.0000 -0.7730
usemtl None
s off
f 2//1 1//1 32//1 31//1 30//1 29//1 28//1 27//1 26//1 25//1 24//1 23//1 22//1 21//1 20//1 19//1 18//1 17//1 16//1 15//1 14//1 13//1 12//1 11//1 10//1 9//1 8//1 7//1 6//1 5//1 4//1 3//1
f 34//2 35//2 36//2 37//2 38//2 39//2 40//2 41//2 42//2 43//2 44//2 45//2 46//2 47//2 48//2 49//2 50//2 51//2 52//2 53//2 54//2 55//2 56//2 57//2 58//2 59//2 60//2 61//2 62//2 63//2 64//2 33//2
f 31//3 32//3 64//3 63//3
f 18//4 19//4 51//4 50//4
f 5//5 6//5 38//5 37//5
f 32//6 1//6 33//6 64//6
f 19//7 20//7 52//7 51//7
f 6//8 7//8 39//8 38//8
f 20//9 21//9 53//9 52//9
f 7//10 8//10 40//10 39//10
f 21//11 22//11 54//11 53//11
f 8//12 9//12 41//12 40//12
f 22//13 23//13 55//13 54//13
f 9//14 10//14 42//14 41//14
f 23//15 24//15 56//15 55//15
f 10//16 11//16 43//16 42//16
f 24//17 25//17 57//17 56//17
f 11//18 12//18 44//18 43//18
f 25//19 26//19 58//19 57//19
f 12//20 13//20 45//20 44//20
f 26//21 27//21 59//21 58//21
f 13//22 14//22 46//22 45//22
f 27//23 28//23 60//23 59//23
f 14//24 15//24 47//24 46//24
f 1//25 2//25 34//25 33//25
f 28//26 29//26 61//26 60//26
f 15//27 16//27 48//27 47//27
f 2//28 3//28 35//28 34//28
f 29//29 30//29 62//29 61//29
f 16//30 17//30 49//30 48//30
f 3//31 4//31 36//31 35//31
f 30//32 31//32 63//32 62//32
f 17//33 18//33 50//33 49//33
f 4//34 5//34 37//34 36//34
